<svg xmlns="http://www.w3.org/2000/svg" xmlns:xlink="http://www.w3.org/1999/xlink" fill="none" version="1.1" width="250" height="250" viewBox="0 0 250 250"><g><g><rect x="0" y="0" width="250" height="248.015869140625" rx="40" fill="#167CFF" fill-opacity="1"/></g><g><g><path d="M108.96,62.88L105.92,59.84L142.72,59.84L98.24,113.6L93.6,150.4L62.879999999999995,150.4L67.52000000000001,113.6L41.44,64.32L36.8,59.84L69.12,59.84L85.92,93.6L108.96,62.88Z" fill="#FFFFFF" fill-opacity="1"/></g><g><path d="M112.56,178.69079116821288L121.84,109.57079116821289L117.2,103.4907911682129L152.56,103.4907911682129L141.84,183.3307911682129Q140.56,187.97079116821288,137.36,191.0107911682129Q134.16,194.0507911682129,129.52,194.0507911682129L78.8,194.0507911682129L81.84,172.6107911682129L88.08,178.69079116821288L112.56,178.69079116821288Z" fill="#FFFFFF" fill-opacity="1"/></g><g><path d="M209.04,59.84L195.12,150.4L166,150.4L176.72,65.92L172.08,59.84L209.04,59.84Z" fill="#FFFFFF" fill-opacity="1"/></g></g></g></svg>